<svg width="284" height="289" viewBox="0 0 284 289" fill="none" xmlns="http://www.w3.org/2000/svg">
<path d="M240.619 36.4045C237.118 36.4045 233.695 35.3663 230.784 33.4212C227.873 31.476 225.604 28.7113 224.264 25.4766C222.924 22.242 222.574 18.6826 223.257 15.2487C223.94 11.8148 225.626 8.66059 228.101 6.18488C230.577 3.70917 233.731 2.0232 237.165 1.34015C240.599 0.657106 244.158 1.00767 247.393 2.34751C250.628 3.68735 253.392 5.9563 255.338 8.86742C257.283 11.7785 258.321 15.2011 258.321 18.7023C258.321 23.3972 256.456 27.8998 253.136 31.2197C249.816 34.5395 245.314 36.4045 240.619 36.4045ZM240.619 7.10424C238.325 7.10424 236.082 7.78445 234.175 9.05886C232.268 10.3333 230.781 12.1446 229.904 14.2639C229.026 16.3832 228.796 18.7151 229.244 20.9649C229.691 23.2147 230.796 25.2813 232.418 26.9033C234.04 28.5253 236.106 29.6299 238.356 30.0775C240.606 30.525 242.938 30.2953 245.057 29.4175C247.176 28.5396 248.988 27.0531 250.262 25.1458C251.537 23.2385 252.217 20.9961 252.217 18.7023C252.217 15.6263 250.995 12.6763 248.82 10.5012C246.645 8.32617 243.695 7.10424 240.619 7.10424ZM19.6456 218.921C16.1445 218.921 12.7219 217.883 9.81078 215.938C6.89966 213.992 4.63071 211.228 3.29087 207.993C1.95103 204.758 1.60047 201.199 2.28351 197.765C2.96656 194.331 4.65254 191.177 7.12824 188.701C9.60395 186.226 12.7582 184.54 16.1921 183.857C19.626 183.174 23.1853 183.524 26.42 184.864C29.6547 186.204 32.4194 188.473 34.3645 191.384C36.3097 194.295 37.3479 197.718 37.3479 201.219C37.3479 203.543 36.89 205.845 36.0004 207.993C35.1108 210.141 33.8068 212.092 32.163 213.736C30.5192 215.38 28.5677 216.684 26.42 217.573C24.2723 218.463 21.9703 218.921 19.6456 218.921ZM19.6456 189.621C17.3518 189.621 15.1094 190.301 13.2021 191.575C11.2948 192.85 9.80827 194.661 8.93044 196.78C8.05262 198.9 7.82294 201.232 8.27045 203.481C8.71796 205.731 9.82257 207.798 11.4446 209.42C13.0666 211.042 15.1332 212.146 17.383 212.594C19.6328 213.041 21.9647 212.812 24.084 211.934C26.2033 211.056 28.0146 209.57 29.289 207.662C30.5635 205.755 31.2437 203.513 31.2437 201.219C31.2437 198.143 30.0217 195.193 27.8467 193.018C25.6716 190.843 22.7216 189.621 19.6456 189.621ZM268.607 71.3696C265.83 71.3696 263.115 70.5461 260.807 69.0034C258.498 67.4607 256.698 65.268 255.636 62.7026C254.573 60.1372 254.295 57.3143 254.837 54.5908C255.378 51.8674 256.716 49.3657 258.679 47.4022C260.643 45.4388 263.144 44.1016 265.868 43.5599C268.591 43.0182 271.414 43.2962 273.979 44.3588C276.545 45.4215 278.738 47.221 280.28 49.5298C281.823 51.8386 282.646 54.553 282.646 57.3298C282.646 61.0534 281.167 64.6245 278.534 67.2574C275.901 69.8904 272.33 71.3696 268.607 71.3696ZM268.607 49.3943C267.037 49.3943 265.503 49.8597 264.198 50.7317C262.893 51.6037 261.876 52.843 261.275 54.2931C260.675 55.7431 260.517 57.3386 260.824 58.878C261.13 60.4173 261.886 61.8313 262.995 62.9411C264.105 64.0509 265.519 64.8067 267.058 65.1129C268.598 65.419 270.193 65.2619 271.643 64.6613C273.093 64.0607 274.333 63.0435 275.205 61.7386C276.077 60.4336 276.542 58.8993 276.542 57.3298C276.542 55.2252 275.706 53.2068 274.218 51.7186C272.73 50.2304 270.711 49.3943 268.607 49.3943ZM265.554 274.03C262.778 274.03 260.063 273.207 257.754 271.664C255.446 270.121 253.646 267.928 252.583 265.363C251.521 262.798 251.243 259.975 251.785 257.251C252.326 254.528 253.663 252.026 255.627 250.063C257.59 248.099 260.092 246.762 262.815 246.22C265.539 245.679 268.362 245.957 270.927 247.019C273.493 248.082 275.685 249.881 277.228 252.19C278.771 254.499 279.594 257.213 279.594 259.99C279.594 263.714 278.115 267.285 275.482 269.918C272.849 272.551 269.278 274.03 265.554 274.03ZM265.554 252.055C263.985 252.055 262.451 252.52 261.146 253.392C259.841 254.264 258.824 255.503 258.223 256.953C257.622 258.403 257.465 259.999 257.771 261.538C258.078 263.078 258.833 264.492 259.943 265.601C261.053 266.711 262.467 267.467 264.006 267.773C265.546 268.079 267.141 267.922 268.591 267.322C270.041 266.721 271.281 265.704 272.153 264.399C273.025 263.094 273.49 261.56 273.49 259.99C273.49 257.886 272.654 255.867 271.166 254.379C269.678 252.891 267.659 252.055 265.554 252.055ZM82.4642 198.545C77.5908 198.544 72.7332 197.989 67.985 196.891C61.3802 195.359 52.114 192.062 45.497 185.104C34.778 173.829 35.6509 158.599 38.172 143.815C45.552 100.871 77.062 74.6109 79.6807 72.5172C81.6036 70.6554 102.388 51.25 137.592 44.7368C137.99 44.653 138.401 44.6498 138.801 44.7272C139.2 44.8047 139.58 44.9613 139.918 45.1878C140.257 45.4143 140.546 45.7062 140.77 46.0463C140.993 46.3863 141.147 46.7677 141.221 47.1679C141.295 47.5682 141.288 47.9792 141.201 48.3768C141.114 48.7744 140.948 49.1505 140.714 49.4831C140.479 49.8157 140.18 50.098 139.835 50.3134C139.489 50.5288 139.104 50.6729 138.703 50.7373C104.323 57.104 84.0513 76.7779 83.8499 76.9855C83.7728 77.0614 83.6912 77.1327 83.6057 77.1991C83.2883 77.4555 51.3449 103.368 44.2152 144.858C41.9139 158.092 41.0593 171.57 49.9226 180.898C57.4735 188.833 75.2796 194.992 91.9868 191.531C105.27 188.784 117.313 179.64 129.882 162.762C146.034 141.074 171.72 126.595 195.313 125.874C214.847 125.264 232.647 133.81 246.723 150.468C247.238 151.088 247.487 151.887 247.416 152.69C247.344 153.493 246.958 154.235 246.341 154.754C245.725 155.273 244.928 155.527 244.124 155.461C243.321 155.394 242.576 155.013 242.053 154.399C229.039 138.98 213.363 131.441 195.502 131.978C173.698 132.638 149.861 146.152 134.777 166.406C121.263 184.554 108.059 194.437 93.226 197.538C89.6818 198.235 86.0763 198.572 82.4642 198.545Z" fill="white" stroke="white" stroke-width="2"/>
<path d="M212.094 251.651C208.193 251.702 204.393 250.409 201.332 247.988C198 245.37 196.199 242.22 195.985 238.618C195.595 232.099 200.838 226.776 201.058 226.556C220.897 207.389 230.59 188.368 229.894 169.982C229.052 147.702 212.961 134.102 212.802 133.967C212.494 133.711 212.239 133.397 212.051 133.042C211.864 132.687 211.749 132.299 211.712 131.9C211.675 131.501 211.717 131.098 211.835 130.715C211.954 130.332 212.146 129.976 212.403 129.667C212.659 129.358 212.973 129.103 213.328 128.916C213.682 128.729 214.071 128.614 214.47 128.576C214.869 128.539 215.272 128.581 215.655 128.7C216.038 128.818 216.394 129.011 216.703 129.267C217.448 129.878 235.052 144.772 235.998 169.75C236.761 189.937 226.457 210.502 205.373 230.884C204.372 231.904 201.888 235.157 202.089 238.277C202.199 240.077 203.188 241.683 205.111 243.19C212.662 249.124 223.674 241.793 223.784 241.719C223.878 241.653 223.976 241.591 224.077 241.536C240.033 233.143 261.593 213.725 269.859 186.647C272.911 176.551 279.229 150.022 271.354 121.692C263.119 92.0741 242.109 70.6727 208.914 58.0796C199.891 54.6277 190.549 52.078 181.024 50.4677C180.617 50.4151 180.226 50.2812 179.872 50.0739C179.518 49.8667 179.21 49.5903 178.966 49.2614C178.721 48.9325 178.546 48.5576 178.449 48.1593C178.353 47.761 178.337 47.3473 178.404 46.943C178.471 46.5386 178.619 46.1519 178.838 45.8058C179.058 45.4597 179.345 45.1614 179.682 44.9287C180.019 44.6959 180.4 44.5335 180.802 44.451C181.203 44.3686 181.617 44.3679 182.019 44.4489C191.945 46.1243 201.68 48.7826 211.081 52.3844C229.79 59.4836 245.051 69.4762 256.435 82.0265C266.258 92.8996 273.384 105.931 277.239 120.068C285.54 149.924 278.923 177.826 275.694 188.435C266.935 217.235 244.068 237.88 227.086 246.877C225.908 247.628 219.432 251.651 212.094 251.651Z" fill="white" stroke="white" stroke-width="2"/>
<path d="M126.263 75.1534C125.648 75.1529 125.048 74.9666 124.54 74.6189C124.033 74.2712 123.642 73.7783 123.42 73.2048C123.198 72.6314 123.154 72.0041 123.294 71.4052C123.434 70.8064 123.752 70.2639 124.206 69.8488C127.179 67.1922 130.477 64.9236 134.022 63.0975C134.256 54.4846 135.617 45.9394 138.069 37.6795C143.825 18.9456 154.965 7.63451 170.293 4.96696C176.355 3.91093 187.153 3.63624 191.316 13.6472C196.761 26.7407 186.518 49.9551 174.603 58.3912C174.144 58.719 173.603 58.9115 173.04 58.9467C172.741 58.9467 142.861 61.0831 128.32 74.3537C127.758 74.8676 127.025 75.1528 126.263 75.1534ZM175.939 10.5462C174.394 10.5602 172.852 10.7051 171.331 10.9796C145.547 15.4662 141.048 48.1544 140.266 60.198C153.629 54.7714 167.955 53.2453 171.728 52.9279C176.3 49.3935 180.884 42.8559 183.747 35.6224C186.842 27.87 187.562 20.5327 185.67 15.9912C184.15 12.3653 180.902 10.5462 175.939 10.5462ZM155.051 183.009C145.583 183.009 134.394 178.504 129.486 165.673C129.21 164.92 129.242 164.088 129.574 163.358C129.907 162.628 130.513 162.059 131.262 161.772C132.012 161.486 132.844 161.506 133.578 161.828C134.313 162.15 134.891 162.749 135.188 163.494C140.266 176.783 152.75 177.088 156.455 176.862C164.39 176.386 171.325 172.241 172.582 167.217C173.516 163.463 173.193 160.722 171.557 159.08C169.39 156.871 164.598 156.224 159.348 157.432C150.192 159.544 140.23 158.568 139.815 158.525C139.009 158.444 138.269 158.046 137.757 157.42C137.244 156.793 137.002 155.988 137.083 155.183C137.164 154.377 137.562 153.637 138.188 153.125C138.815 152.613 139.62 152.37 140.425 152.451C140.596 152.451 149.85 153.361 157.975 151.487C165.465 149.753 172.167 150.998 175.909 154.801C178.113 157.048 180.353 161.278 178.497 168.701C176.562 176.441 167.644 182.307 156.815 182.954C156.235 182.991 155.649 183.009 155.051 183.009ZM47.9155 124.415C47.4245 124.415 46.9406 124.297 46.5049 124.071C46.0693 123.844 45.6946 123.516 45.4128 123.114C37.3064 111.553 34.4801 99.6191 37.6482 90.3651C39.5527 84.8408 43.4655 80.8059 48.3916 79.3104C54.3127 77.4791 59.1046 77.9186 62.6328 80.5312C67.8031 84.3586 67.858 91.3784 67.858 91.6714C67.858 92.4809 67.5365 93.2572 66.9641 93.8296C66.3917 94.402 65.6154 94.7235 64.8059 94.7235C63.9964 94.7235 63.2201 94.402 62.6477 93.8296C62.0754 93.2572 61.7538 92.4809 61.7538 91.6714C61.7538 91.5738 61.6561 87.3618 58.9764 85.3963C57.0841 84.0106 54.093 83.9191 50.1741 85.1216C47.122 86.0494 44.6803 88.6743 43.4167 92.3307C40.8712 99.7107 43.4167 109.642 50.3877 119.586C50.7082 120.043 50.8971 120.579 50.9339 121.137C50.9708 121.694 50.8541 122.25 50.5967 122.745C50.3393 123.241 49.9509 123.656 49.4738 123.946C48.9968 124.236 48.4494 124.39 47.8911 124.39L47.9155 124.415ZM203.83 286.982C200.225 287.055 196.678 286.068 193.63 284.144C191.603 282.81 189.878 281.067 188.566 279.026C187.254 276.986 186.384 274.693 186.011 272.296C185.517 268.346 184.04 264.085 172.68 263.487C165.745 263.121 160.288 259.611 158.085 254.087C155.368 247.268 157.975 238.973 165.227 231.336C178.918 216.924 208.176 219.531 209.415 219.653C210.202 219.752 210.919 220.154 211.415 220.774C211.91 221.393 212.145 222.181 212.07 222.971C211.994 223.76 211.615 224.489 211.011 225.004C210.407 225.518 209.627 225.777 208.835 225.726C208.56 225.726 181.293 223.285 169.652 235.542C164.189 241.292 161.985 247.378 163.755 251.828C165.074 255.124 168.443 257.151 173.003 257.395C184.882 258.006 190.944 262.51 192.067 271.539C192.323 273.055 192.889 274.501 193.729 275.789C194.57 277.076 195.666 278.177 196.95 279.022C200.344 281.226 204.886 281.464 210.428 279.798C223.546 275.805 226.086 259.324 228.741 241.878L229.058 239.845C229.112 239.443 229.246 239.055 229.451 238.704C229.657 238.354 229.93 238.048 230.255 237.805C230.581 237.561 230.951 237.385 231.345 237.287C231.74 237.189 232.149 237.17 232.551 237.232C232.952 237.295 233.337 237.436 233.683 237.649C234.029 237.862 234.329 238.142 234.566 238.472C234.802 238.803 234.97 239.177 235.06 239.573C235.15 239.969 235.16 240.379 235.089 240.779L234.778 242.812C231.921 261.351 228.973 280.53 212.192 285.639C209.486 286.496 206.668 286.949 203.83 286.982ZM54.8377 148.581C54.292 148.58 53.7566 148.433 53.2871 148.155C52.8176 147.877 52.4312 147.478 52.1681 147C51.9051 146.522 51.775 145.982 51.7915 145.437C51.808 144.892 51.9703 144.361 52.2617 143.899L53.3422 142.184C53.7744 141.499 54.461 141.014 55.2509 140.835C56.0408 140.657 56.8693 140.799 57.5541 141.232C58.2389 141.664 58.7239 142.351 58.9025 143.14C59.0811 143.93 58.9386 144.759 58.5063 145.444L57.4259 147.153C57.1508 147.591 56.769 147.951 56.3163 148.201C55.8636 148.451 55.3548 148.582 54.8377 148.581ZM102.768 168.829C102.223 168.828 101.688 168.682 101.218 168.405C100.749 168.127 100.362 167.729 100.099 167.252C99.835 166.775 99.7041 166.236 99.7195 165.691C99.7349 165.146 99.8959 164.615 100.186 164.153L101.266 162.438C101.703 161.765 102.388 161.292 103.171 161.12C103.954 160.947 104.774 161.091 105.453 161.518C106.131 161.946 106.614 162.623 106.797 163.404C106.98 164.185 106.849 165.007 106.431 165.691L105.35 167.407C105.075 167.842 104.694 168.201 104.242 168.45C103.791 168.699 103.284 168.829 102.768 168.829Z" fill="white" stroke="white" stroke-width="2"/>
<path d="M42.805 168.857C33.1115 168.857 22.5023 163.857 15.4885 157.6C6.80223 149.842 1.38777 136.59 1.02152 122.159C0.380576 97.6996 14.1029 71.0058 35.9804 54.1642C36.2967 53.9076 36.6612 53.717 37.0523 53.6034C37.4435 53.4899 37.8534 53.4558 38.2579 53.5031C38.6625 53.5504 39.0534 53.6783 39.4078 53.879C39.7621 54.0798 40.0727 54.3495 40.3213 54.6722C40.5698 54.9948 40.7512 55.364 40.8549 55.7579C40.9585 56.1517 40.9823 56.5624 40.9247 56.9656C40.8672 57.3688 40.7296 57.7564 40.5199 58.1056C40.3103 58.4548 40.0329 58.7585 39.704 58.9988C19.3342 74.6928 6.51533 99.421 7.12575 122.001C7.46148 134.783 12.1129 146.387 19.5662 153.047C27.0194 159.706 39.9299 165.096 48.9092 161.757C49.6677 161.473 50.508 161.502 51.2452 161.837C51.9824 162.173 52.5562 162.787 52.8403 163.546C53.1244 164.304 53.0956 165.145 52.7602 165.882C52.4248 166.619 51.8103 167.193 51.0518 167.477C48.4071 168.425 45.6142 168.892 42.805 168.857ZM129.674 221.261C114.047 221.261 101.985 217.208 93.757 209.181C82.0491 197.766 82.6778 182.622 82.7083 181.981C82.7488 181.171 83.1092 180.411 83.7102 179.867C84.3112 179.323 85.1036 179.041 85.913 179.081C86.7225 179.122 87.4827 179.482 88.0265 180.083C88.5703 180.684 88.853 181.476 88.8125 182.286C88.8125 182.414 88.3425 195.422 98.0849 204.872C106.301 212.838 119.34 216.207 136.835 214.87C157.925 213.271 174.418 204.615 185.845 189.141C190.986 182.224 194.719 174.366 196.833 166.012C196.995 165.219 197.465 164.522 198.141 164.076C198.816 163.629 199.641 163.469 200.434 163.631C201.228 163.793 201.924 164.264 202.371 164.939C202.817 165.614 202.977 166.44 202.815 167.233C202.711 167.746 200.215 179.856 190.894 192.572C182.274 204.334 165.982 218.82 137.274 220.987C134.661 221.166 132.128 221.257 129.674 221.261ZM141.419 157.954C141.108 157.953 140.8 157.905 140.503 157.814C140.12 157.694 139.764 157.499 139.457 157.241C139.149 156.984 138.895 156.668 138.71 156.311C138.524 155.955 138.411 155.566 138.376 155.166C138.341 154.766 138.386 154.363 138.507 153.981C140.717 146.979 140.503 141.088 137.897 136.48C133.923 129.521 125.584 127.519 125.505 127.494C124.732 127.3 124.065 126.811 123.648 126.132C123.231 125.453 123.096 124.637 123.272 123.859C123.448 123.082 123.921 122.404 124.591 121.971C125.26 121.538 126.073 121.384 126.854 121.543C127.3 121.646 137.842 124.1 143.158 133.385C146.705 139.544 147.108 147.095 144.379 155.818C144.182 156.446 143.787 156.993 143.254 157.378C142.72 157.763 142.077 157.965 141.419 157.954Z" fill="white" stroke="white" stroke-width="2"/>
<path d="M46.7342 127.355C46.4173 127.353 46.1024 127.304 45.8003 127.208C45.0339 126.96 44.3966 126.419 44.0273 125.704C43.6579 124.988 43.5865 124.155 43.8286 123.387C43.8896 123.185 50.4273 103.536 74.6061 106.228C75.4107 106.317 76.147 106.722 76.653 107.354C77.159 107.986 77.3932 108.793 77.3042 109.597C77.2152 110.402 76.8101 111.138 76.1782 111.644C75.5463 112.15 74.7393 112.385 73.9347 112.295C54.8284 110.171 49.8474 124.632 49.6398 125.249C49.44 125.862 49.0512 126.395 48.5292 126.774C48.0072 127.152 47.3789 127.355 46.7342 127.355Z" fill="white" stroke="white" stroke-width="2"/>
<path d="M64.507 237.461C60.7803 237.434 57.152 236.262 54.1142 234.103C51.0763 231.944 48.776 228.903 47.525 225.393C47.2417 224.634 47.2713 223.794 47.6073 223.057C47.9433 222.321 48.5581 221.748 49.3166 221.464C50.0751 221.181 50.9151 221.211 51.6517 221.547C52.3884 221.883 52.9614 222.498 53.2447 223.256C56.4738 231.887 64.9221 231.344 65.0075 231.338C65.817 231.277 66.6178 231.539 67.2336 232.068C67.8495 232.597 68.2301 233.349 68.2916 234.158C68.3531 234.968 68.0906 235.768 67.5617 236.384C67.0328 237 66.2809 237.381 65.4715 237.442C65.154 237.461 64.8305 237.461 64.507 237.461Z" fill="white" stroke="white" stroke-width="2"/>
<path d="M36.2407 237.455C35.8989 237.455 35.5753 237.455 35.2762 237.419C34.8754 237.388 34.4845 237.279 34.1259 237.098C33.7672 236.916 33.4479 236.666 33.186 236.361C32.9241 236.056 32.7249 235.702 32.5996 235.32C32.4744 234.938 32.4256 234.536 32.4561 234.135C32.4865 233.734 32.5956 233.343 32.7772 232.984C32.9587 232.626 33.2091 232.306 33.514 232.045C33.819 231.783 34.1725 231.583 34.5545 231.458C34.9365 231.333 35.3393 231.284 35.7401 231.315C38.3056 231.394 40.8296 230.654 42.9451 229.2C45.0606 227.746 46.6573 225.656 47.503 223.233C47.7863 222.474 48.3593 221.859 49.096 221.523C49.8326 221.187 50.6726 221.158 51.4311 221.441C52.1895 221.724 52.8044 222.297 53.1404 223.034C53.4764 223.771 53.506 224.611 53.2227 225.369C51.9747 228.883 49.6757 231.928 46.6376 234.09C43.5995 236.252 39.9696 237.427 36.2407 237.455ZM94.1942 237.455C90.4673 237.43 86.8386 236.258 83.8006 234.099C80.7626 231.94 78.4624 228.898 77.2123 225.387C76.929 224.629 76.9586 223.789 77.2945 223.052C77.6305 222.316 78.2454 221.743 79.0039 221.459C79.7623 221.176 80.6023 221.206 81.3389 221.542C82.0756 221.878 82.6486 222.492 82.9319 223.251C86.1611 231.882 94.6093 231.339 94.6948 231.333C95.5043 231.271 96.305 231.534 96.9209 232.063C97.5368 232.592 97.9173 233.344 97.9789 234.153C98.0404 234.963 97.7778 235.763 97.2489 236.379C96.7201 236.995 95.9682 237.376 95.1587 237.437C94.8596 237.455 94.5361 237.455 94.1942 237.455Z" fill="white" stroke="white" stroke-width="2"/>
<path d="M65.9406 237.455C65.5987 237.455 65.2752 237.455 64.9761 237.419C64.1666 237.36 63.4138 236.982 62.8832 236.367C62.3526 235.753 62.0877 234.953 62.1468 234.144C62.2059 233.334 62.5841 232.582 63.1983 232.051C63.8125 231.52 64.6123 231.256 65.4217 231.315C67.9905 231.399 70.519 230.661 72.6384 229.207C74.7578 227.753 76.3571 225.66 77.2029 223.233C77.4862 222.474 78.0592 221.859 78.7959 221.523C79.5325 221.187 80.3725 221.158 81.131 221.441C81.8894 221.724 82.5043 222.297 82.8403 223.034C83.1763 223.771 83.2059 224.611 82.9225 225.369C81.6746 228.883 79.3756 231.928 76.3375 234.09C73.2994 236.252 69.6695 237.427 65.9406 237.455ZM80.5541 263.093C76.8272 263.067 73.1985 261.895 70.1605 259.737C67.1225 257.578 64.8223 254.536 63.5721 251.025C63.2888 250.267 63.3184 249.427 63.6544 248.69C63.9904 247.953 64.6053 247.38 65.3637 247.097C66.1222 246.814 66.9622 246.843 67.6988 247.179C68.4355 247.515 69.0085 248.13 69.2918 248.889C72.5209 257.532 80.9753 256.989 81.0547 256.989C81.8641 256.927 82.6649 257.19 83.2808 257.719C83.8966 258.248 84.2772 259 84.3387 259.809C84.4002 260.619 84.1377 261.419 83.6088 262.035C83.0799 262.651 82.328 263.032 81.5186 263.093H80.5541Z" fill="white" stroke="white" stroke-width="2"/>
<path d="M52.2997 263.091C51.964 263.091 51.6404 263.091 51.3413 263.055C50.9405 263.026 50.5494 262.918 50.1903 262.737C49.8312 262.557 49.5112 262.307 49.2484 262.003C48.9857 261.699 48.7854 261.346 48.6591 260.965C48.5327 260.583 48.4828 260.181 48.512 259.78C48.5413 259.379 48.6492 258.988 48.8296 258.629C49.01 258.27 49.2594 257.95 49.5635 257.687C49.8676 257.424 50.2205 257.224 50.602 257.098C50.9835 256.971 51.3861 256.921 51.787 256.951C54.3555 257.034 56.8836 256.295 59.0028 254.842C61.122 253.388 62.7215 251.295 63.5681 248.869C63.8514 248.11 64.4244 247.495 65.1611 247.159C65.8978 246.823 66.7377 246.794 67.4962 247.077C68.2547 247.36 68.8695 247.933 69.2055 248.67C69.5415 249.407 69.5711 250.247 69.2878 251.005C68.0395 254.52 65.7395 257.566 62.7002 259.728C59.6609 261.89 56.0296 263.065 52.2997 263.091ZM160.345 254.546C159.687 254.544 159.048 254.331 158.521 253.937C157.995 253.543 157.61 252.99 157.423 252.36C157.236 251.729 157.258 251.055 157.486 250.439C157.713 249.822 158.133 249.295 158.684 248.936C159.203 248.594 171.576 240.622 183.675 238.711C184.071 238.649 184.475 238.665 184.865 238.759C185.255 238.852 185.622 239.022 185.947 239.258C186.271 239.494 186.545 239.791 186.755 240.133C186.964 240.475 187.104 240.855 187.167 241.251C187.229 241.647 187.213 242.051 187.119 242.441C187.025 242.831 186.856 243.198 186.62 243.522C186.384 243.846 186.087 244.121 185.745 244.33C185.403 244.54 185.023 244.68 184.627 244.742C173.798 246.451 162.127 253.978 162.005 254.051C161.512 254.375 160.935 254.547 160.345 254.546ZM184.151 266.144C183.547 266.145 182.955 265.966 182.453 265.631C181.95 265.296 181.558 264.819 181.326 264.26C181.095 263.702 181.034 263.087 181.152 262.495C181.271 261.902 181.562 261.357 181.99 260.931C182.271 260.656 188.851 254.088 192.575 250.981C192.881 250.713 193.238 250.509 193.624 250.381C194.011 250.253 194.419 250.203 194.824 250.235C195.23 250.267 195.625 250.38 195.987 250.567C196.348 250.754 196.669 251.011 196.929 251.324C197.19 251.637 197.385 251.998 197.504 252.387C197.623 252.777 197.662 253.186 197.621 253.591C197.579 253.995 197.457 254.388 197.261 254.745C197.065 255.102 196.8 255.416 196.482 255.669C192.966 258.599 186.373 265.185 186.312 265.252C186.028 265.536 185.691 265.76 185.32 265.913C184.949 266.066 184.552 266.144 184.151 266.144ZM203.447 287.002C202.96 287.003 202.48 286.885 202.049 286.66C201.329 286.29 200.786 285.649 200.539 284.879C200.292 284.108 200.361 283.271 200.73 282.552C204.393 275.41 204.905 261.901 204.905 261.767C204.919 261.366 205.011 260.972 205.177 260.607C205.343 260.242 205.58 259.913 205.873 259.639C206.166 259.365 206.51 259.152 206.885 259.011C207.261 258.87 207.661 258.805 208.061 258.819C208.462 258.832 208.856 258.925 209.221 259.091C209.586 259.257 209.915 259.493 210.189 259.786C210.463 260.079 210.676 260.423 210.817 260.799C210.958 261.174 211.023 261.574 211.01 261.974C211.01 262.585 210.46 276.997 206.157 285.341C205.901 285.84 205.513 286.259 205.035 286.552C204.557 286.845 204.007 287.001 203.447 287.002Z" fill="white" stroke="white" stroke-width="2"/>
</svg>
